HIERARCHY
ROOT Hips
{
  OFFSET -35.2597 29.1586 114.425
  CHANNELS 6 Xposition Yposition Zposition Zrotation Xrotation Yrotation
  JOINT LeftUpLeg
  {
    OFFSET 8.64259 1.95398 -2.38835
    CHANNELS 3 Zrotation Xrotation Yrotation
    JOINT LeftLeg
    {
      OFFSET 43.7702 0 0
      CHANNELS 3 Zrotation Xrotation Yrotation
      JOINT LeftFoot
      {
        OFFSET 40.6238 0 0
        CHANNELS 3 Zrotation Xrotation Yrotation
        JOINT LeftToeBase
        {
          OFFSET 12.7242 0 0
          CHANNELS 3 Zrotation Xrotation Yrotation
          End Site
          {
            OFFSET 0 0 0
          }
        }
      }
    }
  }
  JOINT RightUpLeg
  {
    OFFSET -8.2249 1.95398 -2.59336
    CHANNELS 3 Zrotation Xrotation Yrotation
    JOINT RightLeg
    {
      OFFSET 43.5653 0 0
      CHANNELS 3 Zrotation Xrotation Yrotation
      JOINT RightFoot
      {
        OFFSET 40.6238 0 0
        CHANNELS 3 Zrotation Xrotation Yrotation
        JOINT RightToeBase
        {
          OFFSET 12.7242 0 0
          CHANNELS 3 Zrotation Xrotation Yrotation
          End Site
          {
            OFFSET 0 0 0
          }
        }
      }
    }
  }
  JOINT Spine
  {
    OFFSET 0.165834 0.87714 6.61349
    CHANNELS 3 Zrotation Xrotation Yrotation
    JOINT Spine1
    {
      OFFSET 7.38963 1.71661e-005 0
      CHANNELS 3 Zrotation Xrotation Yrotation
      JOINT Spine2
      {
        OFFSET 11.9445 1.14441e-005 0
        CHANNELS 3 Zrotation Xrotation Yrotation
        JOINT Spine3
        {
          OFFSET 14.7254 4.19617e-005 0
          CHANNELS 3 Zrotation Xrotation Yrotation
          JOINT Spine4
          {
            OFFSET 10.9679 0 0
            CHANNELS 3 Zrotation Xrotation Yrotation
            JOINT RightShoulder
            {
              OFFSET 2.46616 -1.6653 3.69651
              CHANNELS 3 Zrotation Xrotation Yrotation
              JOINT RightArm
              {
                OFFSET 13.0012 0 0
                CHANNELS 3 Zrotation Xrotation Yrotation
                JOINT RightForeArm
                {
                  OFFSET 28.7848 1.62311e-005 0
                  CHANNELS 3 Zrotation Xrotation Yrotation
                  JOINT RightHand
                  {
                    OFFSET 26.5688 1.62095e-005 0
                    CHANNELS 3 Zrotation Xrotation Yrotation
                    End Site
                    {
                      OFFSET 0 0 0
                    }
                  }
                }
              }
            }
            JOINT LeftShoulder
            {
              OFFSET 2.38034 -1.29275 -3.7523
              CHANNELS 3 Zrotation Xrotation Yrotation
              JOINT LeftArm
              {
                OFFSET 16.3182 6.07031e-005 0
                CHANNELS 3 Zrotation Xrotation Yrotation
                JOINT LeftForeArm
                {
                  OFFSET 27.0901 0 0
                  CHANNELS 3 Zrotation Xrotation Yrotation
                  JOINT LeftHand
                  {
                    OFFSET 24.5451 1.51738e-005 0
                    CHANNELS 3 Zrotation Xrotation Yrotation
                    End Site
                    {
                      OFFSET 0 0 0
                    }
                  }
                }
              }
            }
            JOINT Neck
            {
              OFFSET 5.0226 -0.0266342 0
              CHANNELS 3 Zrotation Xrotation Yrotation
              JOINT Head
              {
                OFFSET 6.69364 2.86102e-005 0
                CHANNELS 3 Zrotation Xrotation Yrotation
                End Site
                {
                  OFFSET 0 0 0
                }
              }
            }
          }
        }
      }
    }
  }
}
MOTION
Frames:	10
Frame Time:	0.0416667
38.8658 101.928 -247.611 -136.955 -81.3315 -138.386 -175.092 -5.32589 89.5036 -6.41294 -8.99899 1.50649 65.6058 4.13558 -1.15977 20.5715 -9.3223 8.32726 172.088 -0.522272 86.0857 -11.7386 0.769457 -0.0483067 64.6055 -2.19285 1.68874 24.5803 0.900653 2.6586 0.384833 7.50277 -89.9152 11.8662 0.805244 0.0832363 0.195603 0.808129 0.0477039 -22.342 0.743002 0.321404 -2.32937 0.742996 0.321405 89.1882 -33.9038 -106.867 48.439 4.70438 -6.93437 -5.18468 -40.2794 -5.38349 -23.5209 2.11833 -15.6547 -86.4752 -51.1385 84.1913 -33.6396 -8.30714 -16.7104 3.40773 37.2557 -4.47449 1.40065 -0.246236 -9.09453 2.38762 -0.972724 -1.79863 -2.95823 -0.670259 -0.0296335 
38.7592 101.938 -247.505 -141.111 -81.4886 -142.445 -174.835 -5.44805 89.8524 -6.80193 -8.12707 1.40289 65.9747 4.21607 -1.5132 21.1282 -8.87162 8.18591 172.034 -1.25138 86.179 -11.0857 1.11894 0.0493399 64.0816 -2.00844 1.19471 25.5673 0.61133 2.32299 0.283643 7.50352 -89.9822 11.8671 0.572476 -0.0256885 0.196292 0.570794 -0.0508716 -22.3398 0.553724 0.147556 -2.32715 0.553728 0.147556 88.049 -33.8936 -108.994 47.6846 5.38006 -5.80921 -4.93583 -36.2443 -5.25138 -20.1764 2.22012 -18.0712 -86.3045 -53.1437 84.7387 -31.8949 -9.26437 -16.3239 3.4712 38.3753 -4.54301 0.616598 -0.226392 -9.55463 1.42022 -0.811405 -0.491763 -2.87936 -0.716033 -0.67177 
38.5952 101.937 -247.323 -144.271 -81.8573 -145.451 -174.485 -5.42746 90.3197 -6.88153 -7.01747 1.19756 65.9937 4.27838 -1.13035 20.8791 -8.93142 8.02609 172.228 -1.76154 86.4808 -10.5118 1.94209 0.00840644 63.9637 -1.94848 1.38162 25.4432 0.700562 2.20148 0.266148 7.52452 -89.9932 11.8252 0.532491 -0.0433176 0.154333 0.530064 -0.0667142 -22.3817 0.520887 0.118728 -2.36903 0.52089 0.118727 88.2387 -34.1756 -108.531 47.5825 5.39759 -5.90048 -5.04409 -38.0498 -5.30685 -23.5957 2.39694 -16.9709 -86.1747 -52.937 84.8971 -32.1251 -9.14389 -16.3433 3.45163 38.0364 -4.52187 0.784201 -0.235312 -9.55706 1.19534 -1.00044 -0.771862 -2.33847 -0.865109 -0.608591 
38.4489 101.948 -247.106 -145.122 -81.8334 -146.275 -174.415 -5.92268 90.4514 -6.32963 -6.81438 1.22204 65.7539 4.23147 -1.20237 21.488 -8.66551 8.22597 172.258 -2.05633 86.6194 -10.5263 2.00846 -0.00801431 64.3301 -2.15642 0.874448 24.9027 0.807185 2.54799 0.293354 7.54985 -90.0262 11.7746 0.57112 -0.112596 0.103728 0.565611 -0.137633 -22.4324 0.578557 0.0642616 -2.41977 0.578554 0.0642487 88.2588 -33.7013 -108.677 47.8659 5.29641 -5.82132 -5.00739 -37.4441 -5.28773 -24.0571 2.3617 -16.5695 -86.3358 -53.4745 84.7402 -31.5404 -9.43766 -16.3678 3.47598 38.4566 -4.54813 -0.785682 -0.171177 -10.3461 0.96034 -0.830964 -0.180594 -2.08155 -0.7836 -1.06141 
38.4208 101.953 -246.883 -145.023 -82.1236 -146.416 -174.816 -6.09021 90.034 -5.69118 -6.98907 1.51039 65.4075 4.12663 -1.16102 21.3841 -8.73733 8.23413 172.201 -1.8083 86.4159 -10.7221 2.23685 -0.0273402 64.2963 -1.91559 1.06101 25.4941 0.484254 2.80333 0.285959 7.51653 -89.9814 11.841 0.577434 -0.0245788 0.170181 0.575791 -0.0499712 -22.366 0.558122 0.150112 -2.35331 0.558124 0.150102 88.0978 -34.4621 -108.682 46.9946 5.64327 -5.94501 -5.14603 -39.6801 -5.36187 -24.1929 2.11589 -15.3353 -86.3903 -53.3157 84.6386 -31.4568 -9.53187 -16.0034 3.47103 38.3761 -4.54236 -0.602877 -0.172542 -9.6775 0.651721 -0.836646 -0.428063 -1.96015 -0.754581 -1.14692 
38.2943 101.94 -246.682 -143.989 -82.4108 -145.444 -174.938 -5.97064 89.9554 -5.56239 -7.39287 1.6357 65.6015 4.19719 -1.28218 21.3171 -8.61173 7.96519 172.398 -1.70078 86.5446 -10.5492 2.00113 -0.165498 64.2175 -1.81292 0.578443 25.5305 0.266493 3.42769 0.29903 7.51682 -89.9772 11.8404 0.605479 -0.0190428 0.169622 0.604056 -0.0456714 -22.3666 0.583208 0.163825 -2.35396 0.583203 0.163814 88.1854 -34.4851 -108.512 46.6949 5.71624 -6.15059 -5.19228 -40.3965 -5.3878 -23.8704 2.2969 -16.3512 -86.3081 -53.2139 84.7428 -31.3625 -9.59092 -15.9245 3.48344 38.607 -4.55575 -1.35164 -0.147873 -10.8235 0.978937 -0.656234 -0.518952 -1.65039 -0.566719 -0.84457 
38.1536 101.948 -246.485 -143.416 -82.5247 -144.952 -174.985 -6.06018 89.9311 -5.43658 -7.24618 1.67613 65.5283 4.12756 -1.26566 21.7063 -8.58926 8.32924 172.339 -1.60512 86.5196 -10.7804 2.4355 -0.0963959 64.5435 -1.86015 1.04278 25.0982 0.440962 3.41546 0.306397 7.51788 -89.9896 11.8384 0.614269 -0.0446727 0.167558 0.611716 -0.0716738 -22.3687 0.599294 0.142014 -2.35607 0.599298 0.142011 88.3223 -34.2572 -108.346 47.0256 5.48703 -6.43965 -5.15865 -39.8756 -5.3689 -24.4475 2.21484 -15.702 -86.3622 -54.0505 84.7845 -30.9909 -9.68656 -16.5901 3.52011 39.2244 -4.59479 -0.089365 -0.157066 -7.89742 1.03495 -0.605065 0.00934273 -1.06282 -0.59635 -1.29029 
37.9577 101.954 -246.336 -141.16 -82.4443 -142.47 -174.815 -5.9795 90.2643 -5.44212 -7.40981 1.71344 65.4259 4.01004 -1.28151 21.937 -8.27758 8.06477 172.545 -1.72637 86.8962 -10.5193 2.27397 -0.112586 64.4085 -1.90761 0.817757 25.3876 0.124242 4.03777 0.298 7.5225 -90.0413 11.8294 0.573264 -0.143291 0.15859 0.566406 -0.168381 -22.3776 0.589818 0.0356281 -2.36493 0.589827 0.0356365 88.4353 -33.9551 -108.252 47.2525 5.29693 -6.74455 -5.1316 -39.4541 -5.35394 -25.012 2.32651 -15.9505 -86.2301 -54.6901 85.0629 -30.6425 -9.8504 -16.6974 3.49536 38.8137 -4.56847 -0.173032 -0.164597 -8.27307 1.79576 -0.502807 0.697812 -1.49672 -0.598608 -1.43794 
37.7366 101.917 -246.184 -136.66 -82.5921 -138.021 -174.738 -5.65181 90.3884 -5.39598 -7.6802 1.59725 65.5831 4.09944 -1.39982 21.7857 -8.49955 8.26711 172.556 -1.09559 86.9873 -10.964 2.0142 0.00483075 64.7857 -2.08425 0.726971 24.8263 0.513269 3.52213 0.278814 7.51729 -90.0497 11.8397 0.531106 -0.155692 0.1689 0.523751 -0.178923 -22.3671 0.553353 0.0111336 -2.35448 0.553344 0.011122 88.3157 -34.0255 -108.447 46.9352 5.35122 -7.04932 -5.16115 -39.9148 -5.3703 -25.0972 2.45377 -16.4925 -86.0211 -55.0744 85.4138 -30.0516 -10.1458 -16.7487 3.4688 38.331 -4.54109 -0.941322 -0.173773 -11.0295 2.56101 -0.428948 0.759409 -1.3799 -0.540901 -1.38899 
37.3997 101.901 -245.963 -134.194 -82.4445 -135.299 -174.154 -5.9412 91.087 -5.25847 -7.45543 1.20712 65.6347 4.16511 -1.41477 22.1068 -8.27372 8.23487 172.843 -1.24062 87.4761 -10.8387 1.75897 -0.040332 64.7741 -2.21343 0.8207 25.5691 0.670727 2.14205 0.299714 7.50174 -90.0865 11.8711 0.555317 -0.231899 0.200226 0.544586 -0.256122 -22.3359 0.599349 -0.0542685 -2.32321 0.599348 -0.054281 88.3972 -34.1334 -108.254 46.826 5.44803 -6.88448 -5.16422 -39.9615 -5.372 -24.5774 2.34433 -16.2365 -86.3321 -55.2526 84.9958 -29.911 -10.2307 -16.6426 3.47094 38.3359 -4.54401 -0.871288 -0.184463 -11.5994 2.52016 -0.475567 0.62353 -1.3721 -0.565493 -1.08775 
